# File created by Blade
# Date/Time:  Tue Apr 07 20:57:09 2015
# Frame Rate: 120.000 fps
#------------------------------------------------------
:FULLY-SPECIFIED
:DEGREES
928
root 24.953784 32.587520 13.062487 371.032197 -88.083320 -716.778402
Spine -8.653616 6.397792 -2.748989
Head 22.752169 -1.573879 -5.103869
LeftShoulder -27.893190 47.322588 9.327435
LeftArm 60.170965 -46.186336 -95.363340
LeftForeArm -5.292195 -0.000000 0.889135
LeftHand 9.570979 0.000000 16.946515
LeftHandThumb1 -26.253704 0.000000 33.147579
RightShoulder -2.018032 8.168824 -30.516950
RightArm 26.408391 7.900394 57.408072
RightForeArm -11.457998 -0.000000 19.425282
RightHand 7.148639 -0.000000 -2.488810
RightHandThumb1 -24.326973 -0.000000 -32.862282
LeftUpLeg -40.301103 -10.220064 4.364629
LeftLeg 34.690383 -0.000000 -0.000000
LeftFoot -5.075710 10.858600 -19.440990
LeftToeBase -22.616966 -0.000000 0.000000
RightUpLeg -8.771371 -0.274270 6.990879
RightLeg 1.647838 -0.000000 -0.000000
RightFoot -6.712138 -8.446085 -0.146396
RightToeBase -6.473639 -0.000000 0.000000
929
root 24.703092 32.569393 13.079822 369.883116 -88.401439 -715.806588
Spine -8.531535 6.864858 -2.724689
Head 22.800473 -1.352387 -5.313301
LeftShoulder -28.299452 47.515294 8.877923
LeftArm 59.534608 -45.759432 -95.357174
LeftForeArm -5.497105 -0.000000 0.780039
LeftHand 9.469571 0.000000 16.954441
LeftHandThumb1 -26.253704 0.000000 33.147579
RightShoulder -1.835913 7.896588 -30.282496
RightArm 26.785892 7.439693 57.926812
RightForeArm -11.488219 -0.000000 19.448050
RightHand 7.141974 -0.000000 -2.424860
RightHandThumb1 -24.326973 -0.000000 -32.862282
LeftUpLeg -40.572224 -10.041650 4.018860
LeftLeg 32.368893 -0.000000 -0.000000
LeftFoot -2.377949 11.492669 -18.961668
LeftToeBase -22.039125 -0.000000 0.000000
RightUpLeg -8.139018 -0.012916 6.907608
RightLeg 1.692026 -0.000000 -0.000000
RightFoot -6.988839 -8.545652 -0.263085
RightToeBase -6.641217 -0.000000 0.000000
930
root 24.456423 32.548466 13.093595 368.872470 -88.665702 -714.934930
Spine -8.442012 7.301883 -2.693027
Head 22.831020 -1.171366 -5.529500
LeftShoulder -28.633943 47.809286 8.457878
LeftArm 59.140499 -45.473464 -95.621338
LeftForeArm -5.681123 -0.000000 0.594618
LeftHand 9.550497 0.000000 16.599985
LeftHandThumb1 -26.253704 0.000000 33.147579
RightShoulder -1.677940 7.822157 -30.075477
RightArm 27.001773 6.941899 58.419061
RightForeArm -11.657612 -0.000000 19.393994
RightHand 7.203827 -0.000000 -2.279428
RightHandThumb1 -24.326973 -0.000000 -32.862282
LeftUpLeg -40.829736 -9.734717 3.590804
LeftLeg 30.067978 -0.000000 -0.000000
LeftFoot 0.327976 12.320830 -18.665207
LeftToeBase -21.781650 -0.000000 0.000000
RightUpLeg -7.555076 0.288915 6.845552
RightLeg 1.712361 -0.000000 -0.000000
RightFoot -7.204191 -8.849318 -0.438294
RightToeBase -7.191145 -0.000000 0.000000
931
root 24.204967 32.525285 13.105740 369.692677 -88.859194 -715.877247
Spine -8.349452 7.669483 -2.602379
Head 22.761490 -0.926249 -5.746091
LeftShoulder -29.100121 47.979836 7.965668
LeftArm 58.699684 -45.113812 -95.707570
LeftForeArm -5.744463 -0.000000 0.342251
LeftHand 9.536239 -0.000000 16.382422
LeftHandThumb1 -26.253704 0.000000 33.147579
RightShoulder -1.570206 7.802489 -29.903410
RightArm 27.190884 6.128351 58.727784
RightForeArm -11.527144 -0.000000 19.369139
RightHand 7.122704 -0.000000 -2.398159
RightHandThumb1 -24.326973 -0.000000 -32.862282
LeftUpLeg -41.053686 -9.340256 3.129138
LeftLeg 27.865704 -0.000000 -0.000000
LeftFoot 2.941384 13.024364 -18.101015
LeftToeBase -21.206996 -0.000000 0.000000
RightUpLeg -7.034586 0.485042 6.839779
RightLeg 1.853642 -0.000000 -0.000000
RightFoot -7.537541 -8.987869 -0.373717
RightToeBase -7.077735 -0.000000 0.000000
932
root 23.948986 32.500936 13.113418 372.210720 -89.027831 -718.535032
Spine -8.271119 8.008657 -2.490485
Head 22.748099 -0.671689 -5.954458
LeftShoulder -29.566361 48.171210 7.490431
LeftArm 58.023546 -44.614618 -95.479881
LeftForeArm -6.111418 -0.000000 0.167946
LeftHand 9.360452 -0.000000 16.227916
LeftHandThumb1 -26.253704 0.000000 33.147579
RightShoulder -1.371916 7.743258 -29.737926
RightArm 27.369444 5.657966 59.191659
RightForeArm -11.721124 -0.000000 19.310158
RightHand 7.338094 -0.000000 -2.296565
RightHandThumb1 -24.326973 -0.000000 -32.862282
LeftUpLeg -41.195226 -8.742005 2.500824
LeftLeg 25.729322 -0.000000 -0.000000
LeftFoot 5.178836 13.866660 -17.849133
LeftToeBase -20.280566 -0.000000 0.000000
RightUpLeg -6.511246 0.650808 6.870715
RightLeg 2.030616 -0.000000 -0.000000
RightFoot -7.775112 -9.141476 -0.473666
RightToeBase -7.495709 -0.000000 0.000000
933
root 23.687243 32.473344 13.117647 377.879878 -89.141111 -724.378715
Spine -8.173277 8.378205 -2.355736
Head 22.755577 -0.483486 -6.093531
LeftShoulder -29.829077 48.355692 7.224314
LeftArm 57.456993 -44.265370 -95.534901
LeftForeArm -6.308634 -0.000000 0.008881
LeftHand 9.323067 -0.000000 16.126356
LeftHandThumb1 -26.253704 0.000000 33.147579
RightShoulder -1.236093 7.576502 -29.559636
RightArm 27.598041 5.161591 59.559556
RightForeArm -11.801554 0.000000 19.258090
RightHand 7.350311 0.000000 -2.312657
RightHandThumb1 -24.326973 -0.000000 -32.862282
LeftUpLeg -41.253969 -8.033871 1.779115
LeftLeg 23.777252 -0.000000 -0.000000
LeftFoot 7.027904 14.723103 -17.211261
LeftToeBase -19.446845 -0.000000 0.000000
RightUpLeg -5.949386 0.712152 6.964390
RightLeg 2.224933 -0.000000 -0.000000
RightFoot -8.022611 -9.212616 -0.404480
RightToeBase -7.967915 -0.000000 0.000000
